<?xml version="1.0" encoding="UTF-8"?>
<svg version="1.1" xmlns="http://www.w3.org/2000/svg" width="512" height="512">
<path d="M0 0 C1.83989522 -0.00533081 3.67978608 -0.01239957 5.5196687 -0.02104706 C10.55491406 -0.0396304 15.58986444 -0.03338421 20.62512183 -0.02289402 C26.0635633 -0.01588978 31.50194491 -0.03190929 36.94036865 -0.04489136 C47.58665961 -0.06651633 58.23284361 -0.06640824 68.8791493 -0.05826581 C77.53391607 -0.05196182 86.18865168 -0.05310652 94.84341812 -0.05953789 C96.69226911 -0.06089037 96.69226911 -0.06089037 98.57847062 -0.06227018 C101.08256125 -0.06412141 103.58665187 -0.06598397 106.09074248 -0.06785773 C128.89584581 -0.08395878 151.70089703 -0.07676528 174.50599655 -0.06030459 C195.30557023 -0.04545919 216.10501257 -0.05423553 236.90457153 -0.08226013 C260.29250608 -0.11371223 283.68036331 -0.12858241 307.06831944 -0.11846012 C309.56372586 -0.11743759 312.05913229 -0.11644298 314.55453873 -0.11547661 C316.39611731 -0.11476202 316.39611731 -0.11476202 318.27489951 -0.114033 C326.9156712 -0.11187062 335.55638163 -0.1216637 344.19713974 -0.13624763 C354.73270441 -0.15378187 365.26809065 -0.15363783 375.80364834 -0.13089598 C381.17645155 -0.11976364 386.54894051 -0.11656871 391.92173004 -0.13519669 C396.84553827 -0.15204799 401.7687593 -0.14558732 406.69252981 -0.1209799 C408.46832649 -0.11611147 410.24417096 -0.1195715 412.01992749 -0.13246734 C425.42645645 -0.22275832 437.19883926 1.47345519 447.83670044 10.51075745 C458.13507677 20.84944053 461.33200057 32.29199921 461.37242991 46.54716003 C461.36447477 48.25873161 461.3561372 49.97030145 461.34745789 51.68186951 C461.3527887 53.52176473 461.35985746 55.36165558 461.36850494 57.20153821 C461.38708829 62.23678357 461.38084209 67.27173395 461.37035191 72.30699134 C461.36334766 77.7454328 461.37936718 83.18381442 461.39234924 88.62223816 C461.41397421 99.26852911 461.41386613 109.91471312 461.4057237 120.56101881 C461.39941971 129.21578558 461.40056441 137.87052119 461.40699577 146.52528763 C461.40789743 147.75785495 461.40879908 148.99042228 461.40972806 150.26034013 C461.4115793 152.76443076 461.41344186 155.26852138 461.41531562 157.77261199 C461.43141667 180.57771532 461.42422316 203.38276653 461.40776248 226.18786606 C461.39291707 246.98743974 461.40169341 267.78688208 461.42971802 288.58644104 C461.46117012 311.97437559 461.47604029 335.36223282 461.465918 358.75018895 C461.46489547 361.24559536 461.46390086 363.74100179 461.46293449 366.23640823 C461.4624581 367.46412729 461.46198171 368.69184635 461.46149089 369.95676901 C461.4593285 378.59754071 461.46912158 387.23825114 461.48370552 395.87900925 C461.50123976 406.41457392 461.50109572 416.94996015 461.47835387 427.48551784 C461.46722153 432.85832106 461.4640266 438.23081002 461.48265457 443.60359955 C461.49950587 448.52740778 461.49304521 453.4506288 461.46843778 458.37439932 C461.46356936 460.150196 461.46702939 461.92604047 461.47992522 463.70179699 C461.5702162 477.10832596 459.87400269 488.88070876 450.83670044 499.51856995 C440.49801736 509.81694627 429.05545868 513.01387008 414.80029786 513.05429941 C413.08872628 513.04634428 411.37715644 513.0380067 409.66558838 513.02932739 C407.82569316 513.03465821 405.9858023 513.04172696 404.14591968 513.05037445 C399.11067432 513.0689578 394.07572394 513.0627116 389.04046655 513.05222142 C383.60202508 513.04521717 378.16364347 513.06123668 372.72521973 513.07421875 C362.07892877 513.09584372 351.43274477 513.09573563 340.78643908 513.08759321 C332.13167231 513.08128921 323.4769367 513.08243392 314.82217026 513.08886528 C312.97331927 513.09021776 312.97331927 513.09021776 311.08711775 513.09159757 C308.58302713 513.0934488 306.07893651 513.09531136 303.5748459 513.09718513 C280.76974257 513.11328617 257.96469135 513.10609267 235.15959183 513.08963198 C214.36001815 513.07478658 193.56057581 513.08356292 172.76101685 513.11158752 C149.3730823 513.14303962 125.98522507 513.1579098 102.59726894 513.14778751 C100.10186252 513.14676498 97.60645609 513.14577037 95.11104965 513.144804 C93.26947107 513.14408942 93.26947107 513.14408942 91.39068887 513.14336039 C82.74991718 513.14119801 74.10920675 513.15099109 65.46844864 513.16557503 C54.93288397 513.18310927 44.39749773 513.18296523 33.86194004 513.16022337 C28.48913683 513.14909103 23.11664787 513.1458961 17.74385834 513.16452408 C12.82005011 513.18137538 7.89682908 513.17491471 2.97305857 513.15030729 C1.19726189 513.14543887 -0.57858258 513.1488989 -2.35433911 513.16179473 C-15.76086807 513.25208571 -27.53325088 511.5558722 -38.17111206 502.51856995 C-48.46948839 492.17988686 -51.66641219 480.73732819 -51.70684153 466.48216736 C-51.6988864 464.77059578 -51.69054882 463.05902595 -51.68186951 461.34745789 C-51.68720032 459.50756267 -51.69426908 457.66767181 -51.70291656 455.82778919 C-51.72149991 450.79254382 -51.71525372 445.75759345 -51.70476353 440.72233605 C-51.69775928 435.28389459 -51.7137788 429.84551298 -51.72676086 424.40708923 C-51.74838583 413.76079828 -51.74827775 403.11461428 -51.74013532 392.46830858 C-51.73383133 383.81354182 -51.73497603 375.1588062 -51.74140739 366.50403976 C-51.74230905 365.27147244 -51.7432107 364.03890511 -51.74413968 362.76898726 C-51.74599092 360.26489663 -51.74785348 357.76080601 -51.74972724 355.2567154 C-51.76582829 332.45161207 -51.75863478 309.64656086 -51.7421741 286.84146134 C-51.7273287 266.04188766 -51.73610504 245.24244531 -51.76412964 224.44288635 C-51.79558174 201.0549518 -51.81045191 177.66709457 -51.80032963 154.27913845 C-51.7993071 151.78373203 -51.79831249 149.2883256 -51.79734612 146.79291916 C-51.79686973 145.5652001 -51.79639334 144.33748105 -51.79590251 143.07255838 C-51.79374012 134.43178669 -51.8035332 125.79107626 -51.81811714 117.15031815 C-51.83565138 106.61475348 -51.83550734 96.07936724 -51.81276549 85.54380955 C-51.80163315 80.17100634 -51.79843822 74.79851738 -51.81706619 69.42572784 C-51.83391749 64.50191961 -51.82745683 59.57869859 -51.8028494 54.65492807 C-51.79798098 52.87913139 -51.80144101 51.10328693 -51.81433684 49.3275304 C-51.90462782 35.92100144 -50.20841431 24.14861863 -41.17111206 13.51075745 C-29.22273568 1.60896343 -16.09450649 -0.08161476 0 0 Z M-28.16720581 27.5146637 C-32.20361995 33.12079445 -33.31590205 36.94498672 -33.30142689 43.73310375 C-33.30377912 44.47705293 -33.30613135 45.22100212 -33.30855486 45.98749521 C-33.315254 48.50024321 -33.31478636 51.01293961 -33.31437683 53.5256958 C-33.31767488 55.33749639 -33.32140033 57.14929624 -33.32551831 58.96109515 C-33.33555305 63.95556578 -33.33925747 68.95002439 -33.34190762 73.94450366 C-33.34580629 79.32502752 -33.35538491 84.70554181 -33.36412048 90.08605957 C-33.38389695 103.08755439 -33.39395246 116.08905001 -33.40284827 129.09055611 C-33.40722911 135.20966135 -33.41259644 141.32876571 -33.41783714 147.44787025 C-33.43485037 167.78297464 -33.44934535 188.11807848 -33.45658588 208.4531889 C-33.45849585 213.73206266 -33.46041617 219.01093643 -33.46237183 224.28981018 C-33.46285557 225.60188569 -33.46333931 226.9139612 -33.46383771 228.26579658 C-33.47214102 249.52863376 -33.49748261 270.79141474 -33.5299525 292.05422737 C-33.56299986 313.87264155 -33.58103253 335.69102713 -33.58423012 357.50946647 C-33.58639734 369.76445074 -33.59517698 382.01935305 -33.6206913 394.27431297 C-33.64236652 404.70953609 -33.65046436 415.14465733 -33.64072452 425.57990041 C-33.63617065 430.90541773 -33.63812918 436.23072472 -33.65748596 441.55621338 C-33.67505271 446.43126346 -33.67417272 451.30594875 -33.65858867 456.18100236 C-33.65620272 457.94484318 -33.66058706 459.70870884 -33.67241732 461.47251161 C-33.73630657 471.62669746 -33.76111514 479.19540026 -26.79220581 487.2646637 C-20.24703671 492.87480864 -15.62795012 494.66673703 -7.13774109 494.63491821 C-6.31030024 494.63577264 -5.48285939 494.63662706 -4.63034457 494.63750738 C-1.84809489 494.63915906 0.93409496 494.63364588 3.71633911 494.62818909 C5.70690408 494.62790712 7.69746915 494.62806513 9.68803406 494.62863159 C15.10091598 494.6289192 20.51377588 494.6230283 25.92665267 494.61605763 C31.58012389 494.60981809 37.23359557 494.60921982 42.8870697 494.60803223 C53.59676319 494.60492069 64.30644651 494.59670968 75.01613551 494.58668274 C89.48529242 494.57342925 103.9544521 494.56802026 118.42361355 494.56218052 C141.22668139 494.55276969 164.02972775 494.53284957 186.83279419 494.5146637 C186.83279419 444.3546637 186.83279419 394.1946637 186.83279419 342.5146637 C164.39279419 342.5146637 141.95279419 342.5146637 118.83279419 342.5146637 C118.83279419 308.1946637 118.83279419 273.8746637 118.83279419 238.5146637 C141.27279419 238.5146637 163.71279419 238.5146637 186.83279419 238.5146637 C187.08080103 225.2643328 187.08080103 225.2643328 187.31082153 212.01368713 C187.48707288 202.86791486 187.85347354 193.77801354 188.73904419 184.6709137 C188.85160049 183.48824921 188.85160049 183.48824921 188.96643066 182.2816925 C190.53533733 167.52535096 195.50709469 154.33132002 202.83279419 141.5146637 C203.17826294 140.90638733 203.52373169 140.29811096 203.87966919 139.67140198 C218.09687553 115.10295539 241.67112349 97.30512626 269.00125122 89.65821838 C277.38488949 87.43625087 285.14214592 86.36328161 293.78543091 86.30934143 C295.28821185 86.29429235 295.28821185 86.29429235 296.82135201 86.27893925 C300.05170535 86.2476554 303.28207102 86.22282487 306.51248169 86.19825745 C308.511916 86.17984467 310.51134646 86.1610075 312.51077271 86.14173889 C319.90973417 86.07340553 327.30876959 86.01327962 334.70779419 85.9521637 C351.24904419 85.8077887 367.79029419 85.6634137 384.83279419 85.5146637 C384.83279419 119.5046637 384.83279419 153.4946637 384.83279419 188.5146637 C341.64529419 188.3896637 341.64529419 188.3896637 328.01956177 188.33448792 C323.98137818 188.32779816 323.98137818 188.32779816 319.94319153 188.32377625 C318.14756784 188.32070942 316.35194821 188.31368426 314.55635071 188.30351257 C311.83307767 188.28885983 309.11005586 188.28685216 306.38674927 188.28761292 C305.58969228 188.2804167 304.79263529 188.27322048 303.97142506 188.2658062 C299.83953517 188.28124362 296.47473608 188.4704761 292.83279419 190.5146637 C290.72795673 193.67191988 290.58558829 194.38840981 290.60574341 197.98609924 C290.60610596 199.35598999 290.60610596 199.35598999 290.60647583 200.7535553 C290.61670776 201.70983826 290.6269397 202.66612122 290.63748169 203.65138245 C290.63949585 204.53298035 290.64151001 205.41457825 290.64358521 206.32289124 C290.65404906 209.61603498 290.68197165 212.90910457 290.70779419 216.2021637 C290.76966919 227.2468512 290.76966919 227.2468512 290.83279419 238.5146637 C318.88279419 238.5146637 346.93279419 238.5146637 375.83279419 238.5146637 C375.83279419 272.8346637 375.83279419 307.1546637 375.83279419 342.5146637 C347.78279419 342.5146637 319.73279419 342.5146637 290.83279419 342.5146637 C290.83279419 392.6746637 290.83279419 442.8346637 290.83279419 494.5146637 C312.77779419 494.5971637 334.72279419 494.6796637 357.33279419 494.7646637 C367.71715942 494.81928772 367.71715942 494.81928772 378.31130981 494.87501526 C384.53023895 494.88839502 384.53023895 494.88839502 390.74917603 494.8964386 C393.51411807 494.90257164 396.27832331 494.91511428 399.04312134 494.93696594 C402.5758311 494.96451458 406.10809531 494.97260796 409.64090252 494.9669528 C411.54089651 494.96868947 413.44084187 494.99008601 415.34070587 495.01237869 C423.76499146 494.97152361 429.06566746 493.76809132 435.58279419 488.1396637 C440.92146834 481.91121052 442.98430075 477.40223644 442.96701527 469.29622364 C442.9693675 468.55227446 442.97171973 467.80832528 442.97414324 467.04183218 C442.98084238 464.52908418 442.98037474 462.01638778 442.97996521 459.50363159 C442.98326326 457.691831 442.98698871 455.88003115 442.99110669 454.06823224 C443.00114143 449.07376161 443.00484585 444.07930301 443.007496 439.08482373 C443.01139467 433.70429988 443.02097329 428.32378558 443.02970886 422.94326782 C443.04948533 409.941773 443.05954084 396.94027738 443.06843665 383.93877128 C443.07281749 377.81966605 443.07818482 371.70056168 443.08342552 365.58145714 C443.10043875 345.24635275 443.11493373 324.91124891 443.12217426 304.5761385 C443.12408423 299.29726473 443.12600455 294.01839096 443.12796021 288.73951721 C443.12844395 287.4274417 443.12892769 286.11536619 443.12942608 284.76353081 C443.1377294 263.50069363 443.16307099 242.23791265 443.19554088 220.97510002 C443.22858824 199.15668585 443.24662091 177.33830026 443.2498185 155.51986092 C443.25198572 143.26487665 443.26076536 131.00997434 443.28627968 118.75501442 C443.3079549 108.3197913 443.31605274 97.88467006 443.3063129 87.44942699 C443.30175903 82.12390967 443.30371756 76.79860267 443.32307434 71.47311401 C443.34064109 66.59806394 443.3397611 61.72337864 443.32417705 56.84832504 C443.3217911 55.08448421 443.32617544 53.32061855 443.3380057 51.55681578 C443.40189495 41.40262993 443.42670352 33.83392713 436.45779419 25.7646637 C430.22934101 20.42598954 425.72036694 18.36315714 417.61435413 18.38044262 C416.87040495 18.37809039 416.12645577 18.37573816 415.35996267 18.37331465 C412.84721467 18.36661551 410.33451828 18.36708315 407.82176208 18.36749268 C406.0099615 18.36419462 404.19816164 18.36046918 402.38636273 18.3563512 C397.39189211 18.34631646 392.3974335 18.34261204 387.40295422 18.33996189 C382.02243037 18.33606321 376.64191608 18.3264846 371.26139832 18.31774902 C358.25990349 18.29797255 345.25840788 18.28791704 332.25690177 18.27902123 C326.13779654 18.27464039 320.01869218 18.26927307 313.89958763 18.26403236 C293.56448324 18.24701914 273.2293794 18.23252415 252.89426899 18.22528362 C247.61539522 18.22337366 242.33652146 18.22145333 237.05764771 18.21949768 C235.74557219 18.21901394 234.43349668 18.2185302 233.08166131 18.2180318 C211.81882412 18.20972849 190.55604314 18.1843869 169.29323051 18.151917 C147.47481634 18.11886965 125.65643075 18.10083698 103.83799142 18.09763938 C91.58300714 18.09547217 79.32810483 18.08669253 67.07314491 18.06117821 C56.6379218 18.03950299 46.20280055 18.03140514 35.76755748 18.04114499 C30.44204016 18.04569885 25.11673317 18.04374033 19.79124451 18.02438354 C14.91619443 18.00681679 10.04150913 18.00769678 5.16645553 18.02328084 C3.4026147 18.02566678 1.63874904 18.02128245 -0.12505373 18.00945219 C-11.60109623 17.93724593 -20.13743044 18.14659243 -28.16720581 27.5146637 Z M225.41091919 138.44044495 C204.79791923 165.5332741 204.50804955 195.07421673 204.70779419 227.6396637 C204.74904419 237.1684137 204.79029419 246.6971637 204.83279419 256.5146637 C182.39279419 256.5146637 159.95279419 256.5146637 136.83279419 256.5146637 C136.83279419 278.9546637 136.83279419 301.3946637 136.83279419 324.5146637 C159.27279419 324.5146637 181.71279419 324.5146637 204.83279419 324.5146637 C204.83279419 380.6146637 204.83279419 436.7146637 204.83279419 494.5146637 C227.27279419 494.5146637 249.71279419 494.5146637 272.83279419 494.5146637 C272.83279419 438.4146637 272.83279419 382.3146637 272.83279419 324.5146637 C300.88279419 324.5146637 328.93279419 324.5146637 357.83279419 324.5146637 C357.83279419 302.0746637 357.83279419 279.6346637 357.83279419 256.5146637 C329.78279419 256.5146637 301.73279419 256.5146637 272.83279419 256.5146637 C272.91529419 245.8102887 272.99779419 235.1059137 273.08279419 224.0771637 C273.09858521 220.71343567 273.11437622 217.34970764 273.13064575 213.88404846 C273.16002686 211.19970495 273.19085467 208.51537672 273.22341919 205.83106995 C273.22372131 205.1447197 273.22402344 204.45836945 273.22433472 203.7512207 C273.23582746 194.11140098 273.90027881 186.43030792 280.08279419 178.7021637 C286.91735283 173.26558296 293.2430142 171.41523793 301.89627075 171.30934143 C302.59911194 171.29944183 303.30195313 171.28954224 304.02609253 171.27934265 C306.34183419 171.24783585 308.65759634 171.22301321 310.97341919 171.19825745 C312.58196537 171.17767856 314.19050625 171.15668184 315.79904175 171.13528442 C320.02728989 171.08016022 324.25558605 171.03070849 328.48391724 170.98243713 C333.56011188 170.92330626 338.636219 170.8571315 343.71234131 170.79213715 C351.41910536 170.69424908 359.12592623 170.60531004 366.83279419 170.5146637 C366.83279419 148.4046637 366.83279419 126.2946637 366.83279419 103.5146637 C352.85138053 103.39800985 352.85138053 103.39800985 338.86990356 103.3193512 C333.15384772 103.29558852 327.43805203 103.26770935 321.72219849 103.21290588 C317.10558694 103.1689271 312.48925499 103.14541884 307.87244987 103.13515472 C306.12528021 103.12785543 304.37812302 103.1136069 302.63107491 103.09174347 C271.75204297 102.72124767 245.30709559 114.63264163 225.41091919 138.44044495 Z " fill="#000000" transform="translate(51.167205810546875,-0.5146636962890625)"/>
</svg>
